<svg width="15" height="15" viewBox="0 0 15 15" fill="none" xmlns="http://www.w3.org/2000/svg">
<path d="M12.2524 0.363403H3.66887C2.17789 0.363403 0.964905 1.57611 0.964905 3.06709V5.92317V11.6509C0.964905 13.1418 2.17789 14.3545 3.66887 14.3545H12.2526C13.7436 14.3545 14.9563 13.1418 14.9563 11.6509V5.92289V3.06681C14.956 1.57583 13.7433 0.363403 12.2524 0.363403ZM13.0279 1.97574L13.3372 1.97461V2.28251V4.34612L10.9736 4.35374L10.9654 1.98251L13.0279 1.97574ZM5.96362 5.92289C6.41179 5.30285 7.13879 4.89617 7.96062 4.89617C8.78245 4.89617 9.50945 5.30285 9.95706 5.92289C10.2486 6.3276 10.4233 6.82261 10.4233 7.35884C10.4233 8.7166 9.31754 9.82122 7.96034 9.82122C6.60228 9.82122 5.49767 8.7166 5.49767 7.35884C5.49795 6.82261 5.67208 6.3276 5.96362 5.92289ZM13.5929 11.6506C13.5929 12.3903 12.9915 12.9911 12.2524 12.9911H3.66887C2.92945 12.9911 2.32804 12.3903 2.32804 11.6506V5.92289H4.41648C4.23614 6.36654 4.13482 6.85112 4.13482 7.35884C4.13482 9.46788 5.85073 11.1849 7.96062 11.1849C10.0702 11.1849 11.7861 9.46788 11.7861 7.35884C11.7861 6.85112 11.6843 6.36654 11.5039 5.92289H13.5929V11.6506Z" fill="#1E266D"/>
</svg>
