<svg viewBox="0 0 56 28" fill="none" xmlns="http://www.w3.org/2000/svg">
<path d="M14.649 21.7406C14.649 25.368 11.5804 28 7.3523 28C3.16039 28 0 25.2973 0 21.7121V21.2915H4.25586V21.7121C4.25586 23.1291 5.61084 24.1981 7.40791 24.1981C9.09283 24.1981 10.3635 23.2715 10.3635 22.0446C10.3635 20.893 9.04742 20.016 6.4496 19.4374C2.50514 18.5384 0.335501 16.3968 0.335501 13.4077C0.335501 9.92441 3.26326 7.39624 7.29576 7.39624C11.2958 7.39624 14.3126 9.99329 14.3126 13.4361V13.8567H10.0567V13.4361C10.0567 12.1606 8.85928 11.1991 7.26981 11.1991C5.71743 11.1991 4.59322 12.0228 4.59322 13.1588C4.59322 14.3003 5.81659 15.1488 8.22905 15.6833C12.5498 16.699 14.649 18.6816 14.649 21.7406Z" fill="#2F3C7E"/>
<path d="M30.5455 23.7894V27.9072H29.1988C26.2748 27.9072 23.6584 26.954 21.5425 25.2762C20.5082 26.1165 19.5499 26.7263 18.3441 27.2488L16.6898 23.8179C17.5378 23.4542 18.4971 22.8445 19.1125 22.265C16.9966 19.2152 15.8038 15.136 15.8038 10.4846C15.8019 3.69813 18.3488 0 22.7733 0C26.9671 0 29.3601 3.39324 29.3601 9.18793C29.3601 13.9532 27.5519 18.6045 24.4351 22.2264C25.7817 23.2173 27.6983 23.7894 29.4685 23.7894H30.5455ZM20.2274 10.1788C20.2274 13.5721 20.6194 16.6218 21.9661 18.9856C24.082 16.1645 24.9355 12.7327 24.9355 9.18793C24.9355 5.94713 24.2747 4.11781 22.6584 4.11781C21.0031 4.11781 20.2274 6.06192 20.2274 10.1788Z" fill="#2F3C7E"/>
<path d="M31.8152 4.11789C31.8152 2.55489 33.008 1.41064 34.5465 1.41064C36.1239 1.41064 37.3167 2.55397 37.3167 4.11789C37.3167 5.64325 36.1239 6.82422 34.5465 6.82422C33.007 6.82422 31.8152 5.64233 31.8152 4.11789ZM32.3917 10.1523H36.7013V27.9073H32.3917V10.1523Z" fill="#2F3C7E"/>
<path d="M56 27.908H51.759C51.759 25.9832 51.1936 24.5258 50.0286 23.4504C48.3326 21.8819 45.732 21.4016 43.9711 21.2648V27.9025H39.73V4.11768H43.9711V16.9771C44.9516 16.7888 46.0545 16.3986 46.947 15.6125C48.2399 14.4728 48.8961 12.6371 48.8961 10.153H53.1371C53.1371 13.728 52.0991 16.5317 50.0481 18.4905C51.0592 18.9561 52.0398 19.5659 52.9045 20.3612C54.9592 22.2493 56 24.7875 56 27.908Z" fill="#2F3C7E"/>
</svg>
