<svg width="79" height="40" viewBox="0 0 79 40" fill="none" xmlns="http://www.w3.org/2000/svg">
<path d="M20.6656 30.6698C20.6656 35.787 16.3366 39.5 10.372 39.5C4.45841 39.5 0 35.6873 0 30.6296V30.0363H6.00381V30.6296C6.00381 32.6286 7.9153 34.1366 10.4505 34.1366C12.8274 34.1366 14.6199 32.8294 14.6199 31.0986C14.6199 29.474 12.7633 28.2368 9.09855 27.4207C3.53404 26.1524 0.473297 23.1312 0.473297 18.9144C0.473297 14.0005 4.60353 10.434 10.2922 10.434C15.9352 10.434 20.191 14.0977 20.191 18.9545V19.5479H14.1871V18.9545C14.1871 17.1551 12.4979 15.7987 10.2556 15.7987C8.06566 15.7987 6.47972 16.9607 6.47972 18.5633C6.47972 20.1736 8.20556 21.3706 11.6089 22.1246C17.7042 23.5575 20.6656 26.3545 20.6656 30.6698Z" fill="#2F3C7E"/>
<path d="M43.0908 33.5601V39.3692H41.191C37.066 39.3692 33.3751 38.0244 30.3902 35.6576C28.9311 36.8429 27.5792 37.7032 25.8782 38.4403L23.5444 33.6003C24.7407 33.0873 26.0939 32.2271 26.962 31.4096C23.9771 27.1072 22.2944 21.3526 22.2944 14.7908C22.2918 5.21701 25.8847 0 32.1265 0C38.0427 0 41.4185 4.7869 41.4185 12.9616C41.4185 19.6839 38.8677 26.2457 34.4707 31.3552C36.3705 32.753 39.0743 33.5601 41.5715 33.5601H43.0908ZM28.5349 14.3594C28.5349 19.1463 29.088 23.4487 30.9877 26.7833C33.9726 22.8035 35.1768 17.9622 35.1768 12.9616C35.1768 8.38971 34.2445 5.80906 31.9643 5.80906C29.6292 5.80906 28.5349 8.55165 28.5349 14.3594Z" fill="#2F3C7E"/>
<path d="M44.8823 5.80903C44.8823 3.60407 46.565 1.98987 48.7354 1.98987C50.9607 1.98987 52.6433 3.60278 52.6433 5.80903C52.6433 7.96086 50.9607 9.62689 48.7354 9.62689C46.5637 9.62689 44.8823 7.95957 44.8823 5.80903ZM45.6956 14.3218H51.7752V39.3692H45.6956V14.3218Z" fill="#2F3C7E"/>
<path d="M79.0001 39.3701H73.0173C73.0173 36.6548 72.2197 34.5988 70.5762 33.0818C68.1836 30.869 64.5149 30.1915 62.0307 29.9984V39.3624H56.0479V5.80872H62.0307V23.9497C63.414 23.6841 64.9699 23.1335 66.229 22.0246C68.0529 20.4169 68.9785 17.8271 68.9785 14.3228H74.9614C74.9614 19.3662 73.4971 23.3214 70.6037 26.0847C72.0301 26.7415 73.4134 27.6018 74.6333 28.7237C77.5319 31.3872 79.0001 34.968 79.0001 39.3701Z" fill="#2F3C7E"/>
</svg>
