<svg width="98" height="21" viewBox="0 0 98 21" fill="none" xmlns="http://www.w3.org/2000/svg">
<g clip-path="url(#clip0)">
<path fill-rule="evenodd" clip-rule="evenodd" d="M10.1492 15.773L16.3438 19.5L14.705 12.471L20.1729 7.744L12.9648 7.127L10.1492 0.5L7.33353 7.127L0.125488 7.744L5.59341 12.471L3.95454 19.5L10.1492 15.773Z" fill="#2F3C7E"/>
</g>
<g clip-path="url(#clip1)">
<path fill-rule="evenodd" clip-rule="evenodd" d="M30.1967 15.773L36.3913 19.5L34.7524 12.471L40.2204 7.744L33.0123 7.127L30.1967 0.5L27.381 7.127L20.173 7.744L25.6409 12.471L24.002 19.5L30.1967 15.773Z" fill="#2F3C7E"/>
</g>
<g clip-path="url(#clip2)">
<path fill-rule="evenodd" clip-rule="evenodd" d="M49.2418 15.773L55.4364 19.5L53.7975 12.471L59.2655 7.744L52.0574 7.127L49.2418 0.5L46.4261 7.127L39.2181 7.744L44.686 12.471L43.0471 19.5L49.2418 15.773Z" fill="#2F3C7E"/>
</g>
<g clip-path="url(#clip3)">
<path fill-rule="evenodd" clip-rule="evenodd" d="M68.2868 15.773L74.4815 19.5L72.8426 12.471L78.3105 7.744L71.1025 7.127L68.2868 0.5L65.4712 7.127L58.2631 7.744L63.731 12.471L62.0922 19.5L68.2868 15.773Z" fill="#2F3C7E"/>
</g>
<g clip-path="url(#clip4)">
<path fill-rule="evenodd" clip-rule="evenodd" d="M87.3319 15.773L93.5265 19.5L91.8877 12.471L97.3556 7.744L90.1475 7.127L87.3319 0.5L84.5162 7.127L77.3082 7.744L82.7761 12.471L81.1372 19.5L87.3319 15.773Z" fill="#2F3C7E"/>
</g>
<defs>
<clipPath id="clip0">
<rect width="20.0474" height="21" fill="white" transform="translate(0.125488)"/>
</clipPath>
<clipPath id="clip1">
<rect width="20.0474" height="21" fill="white" transform="translate(20.173)"/>
</clipPath>
<clipPath id="clip2">
<rect width="20.0474" height="21" fill="white" transform="translate(39.2181)"/>
</clipPath>
<clipPath id="clip3">
<rect width="20.0474" height="21" fill="white" transform="translate(58.2631)"/>
</clipPath>
<clipPath id="clip4">
<rect width="20.0474" height="21" fill="white" transform="translate(77.3082)"/>
</clipPath>
</defs>
</svg>
