<svg viewBox="0 0 101 51" fill="none" xmlns="http://www.w3.org/2000/svg">
<path d="M26.4205 39.5989C26.4205 46.206 20.886 50.9999 13.2604 50.9999C5.69998 50.9999 0 46.0772 0 39.547V38.7809H7.67575V39.547C7.67575 42.128 10.1196 44.075 13.3607 44.075C16.3996 44.075 18.6913 42.3872 18.6913 40.1525C18.6913 38.055 16.3177 36.4576 11.6323 35.4038C4.5182 33.7662 0.605101 29.8656 0.605101 24.421C0.605101 18.0765 5.88552 13.4716 13.1584 13.4716C20.3728 13.4716 25.8137 18.202 25.8137 24.4728V25.2389H18.138V24.4728C18.138 22.1495 15.9783 20.3982 13.1116 20.3982C10.3118 20.3982 8.2842 21.8986 8.2842 23.9677C8.2842 26.0468 10.4906 27.5924 14.8417 28.5659C22.6344 30.4159 26.4205 34.0272 26.4205 39.5989Z" fill="#2F3C7E"/>
<path d="M55.0909 43.3308V50.8311H52.6622C47.3884 50.8311 42.6696 49.0948 38.8535 46.0388C36.988 47.5693 35.2596 48.68 33.085 49.6318L30.1012 43.3826C31.6307 42.7202 33.3608 41.6096 34.4707 40.5541C30.6545 34.9991 28.5032 27.5691 28.5032 19.097C28.4999 6.73588 33.0933 0 41.0733 0C48.6371 0 52.953 6.18055 52.953 16.7352C52.953 25.4147 49.6918 33.8868 44.0704 40.4839C46.4992 42.2887 49.9559 43.3308 53.1486 43.3308H55.0909ZM36.4815 18.54C36.4815 24.7205 37.1886 30.2755 39.6174 34.581C43.4335 29.4425 44.973 23.1917 44.973 16.7352C44.973 10.8323 43.7812 7.5003 40.866 7.5003C37.8806 7.5003 36.4815 11.0414 36.4815 18.54Z" fill="#2F3C7E"/>
<path d="M57.3809 7.50027C57.3809 4.65337 59.5321 2.56921 62.3069 2.56921C65.1519 2.56921 67.3032 4.6517 67.3032 7.50027C67.3032 10.2786 65.1519 12.4297 62.3069 12.4297C59.5305 12.4297 57.3809 10.2769 57.3809 7.50027ZM58.4206 18.4915H66.1933V50.831H58.4206V18.4915Z" fill="#2F3C7E"/>
<path d="M101 50.8326H93.351C93.351 47.3266 92.3313 44.6721 90.2302 42.7134C87.1713 39.8564 82.4809 38.9816 79.305 38.7324V50.8225H71.6559V7.50012H79.305V30.9227C81.0735 30.5798 83.0626 29.8689 84.6723 28.4371C87.0041 26.3613 88.1876 23.0176 88.1876 18.493H95.8366C95.8366 25.0047 93.9644 30.1114 90.2653 33.6792C92.089 34.5273 93.8575 35.6379 95.417 37.0865C99.1228 40.5255 101 45.1488 101 50.8326Z" fill="#2F3C7E"/>
</svg>
